<?xml version="1.0" encoding="UTF-8"?>
<!DOCTYPE svg PUBLIC "-//W3C//DTD SVG 1.1//EN" "http://www.w3.org/Graphics/SVG/1.1/DTD/svg11.dtd">
<svg xmlns="http://www.w3.org/2000/svg" version="1.1" width="287px" height="287px" style="shape-rendering:geometricPrecision; text-rendering:geometricPrecision; image-rendering:optimizeQuality; fill-rule:evenodd; clip-rule:evenodd" xmlns:xlink="http://www.w3.org/1999/xlink">
<g><path style="opacity:0.993" fill="#fdfdfd" d="M 126.5,-0.5 C 137.5,-0.5 148.5,-0.5 159.5,-0.5C 216.144,8.58097 255.644,39.581 278,92.5C 281.808,103.73 284.641,115.063 286.5,126.5C 286.5,137.5 286.5,148.5 286.5,159.5C 277.419,216.144 246.419,255.644 193.5,278C 182.27,281.808 170.937,284.641 159.5,286.5C 148.5,286.5 137.5,286.5 126.5,286.5C 69.8558,277.419 30.3558,246.419 8,193.5C 4.19244,182.27 1.35911,170.937 -0.5,159.5C -0.5,148.5 -0.5,137.5 -0.5,126.5C 8.58097,69.8558 39.581,30.3558 92.5,8C 103.73,4.19244 115.063,1.35911 126.5,-0.5 Z"/></g>
<g><path style="opacity:1" fill="#3b3839" d="M 154.5,14.5 C 158.725,15.6078 159.058,16.9411 155.5,18.5C 154.5,18 153.5,17.5 152.5,17C 153.756,16.5831 154.423,15.7498 154.5,14.5 Z"/></g>
<g><path style="opacity:1" fill="#2d292a" d="M 139.5,18.5 C 140.959,25.452 145.293,28.952 152.5,29C 146.309,29.5261 142.143,32.6927 140,38.5C 137.296,32.223 132.463,29.0564 125.5,29C 133.248,29.4006 137.915,25.9006 139.5,18.5 Z"/></g>
<g><path style="opacity:1" fill="#6d6d6d" d="M 208.5,31.5 C 210.027,31.427 211.027,32.0937 211.5,33.5C 209.973,33.573 208.973,32.9063 208.5,31.5 Z"/></g>
<g><path style="opacity:1" fill="#5e5e5e" d="M 208.5,31.5 C 207.206,32.2899 206.039,33.2899 205,34.5C 204.493,33.0039 204.993,31.8373 206.5,31C 207.437,30.3083 208.103,30.475 208.5,31.5 Z"/></g>
<g><path style="opacity:1" fill="#1d1d1d" d="M 75.5,34.5 C 75.5,34.1667 75.5,33.8333 75.5,33.5C 77.5273,33.3379 79.5273,33.5045 81.5,34C 83.7798,37.9467 86.4465,41.6134 89.5,45C 88.9747,45.6924 88.3081,46.1924 87.5,46.5C 84.8045,42.9704 82.3045,39.3037 80,35.5C 78.6439,34.6198 77.1439,34.2865 75.5,34.5 Z"/></g>
<g><path style="opacity:1" fill="#3f3b3c" d="M 163.5,34.5 C 164.22,37.0601 165.887,38.8935 168.5,40C 166.695,40.972 165.028,42.1387 163.5,43.5C 161.891,41.0598 159.557,39.8931 156.5,40C 160.406,40.0585 162.739,38.2252 163.5,34.5 Z"/></g>
<g><path style="opacity:1" fill="#7b7b7b" d="M 75.5,33.5 C 75.5,33.8333 75.5,34.1667 75.5,34.5C 73.7739,36.8201 73.1072,39.4867 73.5,42.5C 70.7861,38.9349 71.4528,35.9349 75.5,33.5 Z"/></g>
<g><path style="opacity:1" fill="#1e1e1e" d="M 211.5,33.5 C 212.995,33.4148 213.995,34.0815 214.5,35.5C 211.468,40.0351 208.635,44.7017 206,49.5C 205.25,48.8742 204.416,48.3742 203.5,48C 206.5,43.6667 209.5,39.3333 212.5,35C 211.944,34.6174 211.611,34.1174 211.5,33.5 Z"/></g>
<g><path style="opacity:1" fill="#585858" d="M 73.5,42.5 C 74.9063,42.9731 75.573,43.9731 75.5,45.5C 74.0937,45.0269 73.427,44.0269 73.5,42.5 Z"/></g>
<g><path style="opacity:1" fill="#565656" d="M 75.5,45.5 C 76.9063,45.9731 77.573,46.9731 77.5,48.5C 76.0937,48.0269 75.427,47.0269 75.5,45.5 Z"/></g>
<g><path style="opacity:1" fill="#626262" d="M 77.5,48.5 C 80.4282,49.637 80.7615,50.9704 78.5,52.5C 78.6242,51.3895 78.2909,50.0562 77.5,48.5 Z"/></g>
<g><path style="opacity:1" fill="#252525" d="M 235.5,52.5 C 236.773,53.0768 236.773,53.7435 235.5,54.5C 234.537,54.0302 234.537,53.3635 235.5,52.5 Z"/></g>
<g><path style="opacity:1" fill="#5e5e5e" d="M 55.5,62.5 C 53.4559,61.9688 51.7893,60.8022 50.5,59C 52.7715,59.0768 54.4382,60.2435 55.5,62.5 Z"/></g>
<g><path style="opacity:1" fill="#7f7f7f" d="M 234.5,63.5 C 234.5,64.1667 234.167,64.5 233.5,64.5C 232.547,62.39 230.881,61.2233 228.5,61C 229.333,60.1667 230.167,59.3333 231,58.5C 231.997,60.3231 233.164,61.9897 234.5,63.5 Z"/></g>
<g><path style="opacity:1" fill="#676767" d="M 226.5,67.5 C 222.816,65.7967 222.649,63.7967 226,61.5C 225.207,63.5005 225.374,65.5005 226.5,67.5 Z"/></g>
<g><path style="opacity:1" fill="#282828" d="M 55.5,62.5 C 58.9464,63.6118 60.9464,65.9452 61.5,69.5C 56.3344,68.5744 51.3344,68.5744 46.5,69.5C 45.2794,68.9717 44.1127,68.305 43,67.5C 42.3123,66.6683 42.479,66.0016 43.5,65.5C 48.4456,66.6143 53.4456,66.781 58.5,66C 57.2899,64.9609 56.2899,63.7942 55.5,62.5 Z"/></g>
<g><path style="opacity:1" fill="#262626" d="M 226.5,67.5 C 229.755,68.9534 232.088,67.9534 233.5,64.5C 234.167,64.5 234.5,64.1667 234.5,63.5C 238.41,62.4676 239.91,60.1343 239,56.5C 241.055,57.672 241.722,59.3386 241,61.5C 237.034,64.464 233.367,67.7974 230,71.5C 228.624,70.2949 227.458,68.9616 226.5,67.5 Z"/></g>
<g><path style="opacity:1" fill="#121212" d="M 126.5,111.5 C 128.468,103.567 129.135,95.2337 128.5,86.5C 129.209,85.596 130.209,85.2627 131.5,85.5C 131.5,83.5 131.5,81.5 131.5,79.5C 128.167,79.5 124.833,79.5 121.5,79.5C 121.5,76.5 121.5,73.5 121.5,70.5C 133.441,69.0176 145.441,68.3509 157.5,68.5C 157.5,74.1667 157.5,79.8333 157.5,85.5C 158.5,85.5 159.5,85.5 160.5,85.5C 160.334,93.84 160.5,102.173 161,110.5C 167.171,112.005 171.505,115.672 174,121.5C 174.667,149.5 174.667,177.5 174,205.5C 173.167,206.333 172.333,207.167 171.5,208C 153.833,208.667 136.167,208.667 118.5,208C 116.667,207.5 115.5,206.333 115,204.5C 114.333,177.167 114.333,149.833 115,122.5C 117.077,116.921 120.91,113.255 126.5,111.5 Z"/></g>
<g><path style="opacity:1" fill="#565656" d="M 46.5,69.5 C 48.4044,69.7376 49.7377,70.7376 50.5,72.5C 48.5956,72.2624 47.2623,71.2624 46.5,69.5 Z"/></g>
<g><path style="opacity:1" fill="#828282" d="M 50.5,72.5 C 52.371,72.8588 53.871,73.8588 55,75.5C 55.3333,75.1667 55.6667,74.8333 56,74.5C 56.3446,76.2009 55.6779,77.5342 54,78.5C 53.4363,76.1133 52.2696,74.1133 50.5,72.5 Z"/></g>
<g><path style="opacity:1" fill="#b0b0b0" d="M 134.5,70.5 C 134.5,73.8333 134.5,77.1667 134.5,80.5C 141.167,80.5 147.833,80.5 154.5,80.5C 154.5,77.1667 154.5,73.8333 154.5,70.5C 155.482,73.9619 155.815,77.6286 155.5,81.5C 148.167,81.5 140.833,81.5 133.5,81.5C 133.185,77.6286 133.518,73.9619 134.5,70.5 Z"/></g>
<g><path style="opacity:1" fill="#fefffe" d="M 134.5,70.5 C 141.167,70.5 147.833,70.5 154.5,70.5C 154.5,73.8333 154.5,77.1667 154.5,80.5C 147.833,80.5 141.167,80.5 134.5,80.5C 134.5,77.1667 134.5,73.8333 134.5,70.5 Z"/></g>
<g><path style="opacity:1" fill="#272727" d="M 256.5,82.5 C 257.249,83.531 257.915,84.6976 258.5,86C 253.025,88.8272 247.858,91.3272 243,93.5C 242.383,92.5509 242.549,91.7175 243.5,91C 247.5,89 251.5,87 255.5,85C 256.252,84.3292 256.586,83.4959 256.5,82.5 Z"/></g>
<g><path style="opacity:1" fill="#b8b8b8" d="M 128.5,86.5 C 129.135,95.2337 128.468,103.567 126.5,111.5C 127.139,103.067 127.806,94.7341 128.5,86.5 Z"/></g>
<g><path style="opacity:1" fill="#f7f7f7" d="M 130.5,87.5 C 139.833,87.5 149.167,87.5 158.5,87.5C 158.5,93.5 158.5,99.5 158.5,105.5C 149.167,105.5 139.833,105.5 130.5,105.5C 130.5,99.5 130.5,93.5 130.5,87.5 Z"/></g>
<g><path style="opacity:1" fill="#171717" d="M 27.5,91.5 C 33.0099,93.1715 38.3432,95.3382 43.5,98C 38.2334,97.7178 33.2334,96.2178 28.5,93.5C 27.7025,93.0431 27.3691,92.3764 27.5,91.5 Z"/></g>
<g><path style="opacity:1" fill="#fdfdfd" d="M 127.5,112.5 C 138.505,112.333 149.505,112.5 160.5,113C 166.159,113.996 169.993,117.162 172,122.5C 172.667,149.833 172.667,177.167 172,204.5C 171.5,205 171,205.5 170.5,206C 153.167,206.667 135.833,206.667 118.5,206C 118,205.5 117.5,205 117,204.5C 116.333,177.5 116.333,150.5 117,123.5C 119.357,118.645 122.857,114.979 127.5,112.5 Z"/></g>
<g><path style="opacity:1" fill="#1c1c1c" d="M 259.5,114.5 C 257.585,114.216 255.919,114.549 254.5,115.5C 252.933,116.681 252.099,118.347 252,120.5C 251.011,115.16 253.178,112.66 258.5,113C 259.056,113.383 259.389,113.883 259.5,114.5 Z"/></g>
<g><path style="opacity:1" fill="#7e7e7e" d="M 254.5,115.5 C 255.919,114.549 257.585,114.216 259.5,114.5C 261.25,115.659 262.25,117.326 262.5,119.5C 261.609,120.11 260.609,120.443 259.5,120.5C 261.087,116.082 259.42,114.415 254.5,115.5 Z"/></g>
<g><path style="opacity:1" fill="#0e0e0e" d="M 259.5,120.5 C 260.609,120.443 261.609,120.11 262.5,119.5C 264.467,119.739 266.301,119.406 268,118.5C 268.591,119.483 268.257,120.15 267,120.5C 262.136,122.049 257.302,122.716 252.5,122.5C 254.608,121.056 256.941,120.39 259.5,120.5 Z"/></g>
<g><path style="opacity:1" fill="#1e1e1e" d="M 32.5,121.5 C 33.9778,121.238 35.3112,121.571 36.5,122.5C 32.165,123.936 27.8316,125.436 23.5,127C 25.5951,127.556 25.7618,128.056 24,128.5C 22.3745,127.711 20.8745,126.711 19.5,125.5C 24.0258,124.407 28.3591,123.073 32.5,121.5 Z"/></g>
<g><path style="opacity:1" fill="#232323" d="M 155.5,117.5 C 163.5,118.167 167.833,122.5 168.5,130.5C 167.5,130.5 166.5,130.5 165.5,130.5C 165.662,128.473 165.495,126.473 165,124.5C 161.98,121.709 158.814,119.376 155.5,117.5 Z"/></g>
<g><path style="opacity:1" fill="#696969" d="M 31.5,132.5 C 32.5676,131.566 33.901,131.232 35.5,131.5C 35.6495,132.552 35.4828,133.552 35,134.5C 34.1841,133.177 33.0174,132.511 31.5,132.5 Z"/></g>
<g><path style="opacity:1" fill="#1e1e1e" d="M 146.5,130.5 C 148.81,133.102 150.643,136.102 152,139.5C 154.516,145.411 156.016,151.577 156.5,158C 156.47,168.715 151.47,172.381 141.5,169C 139.513,167.681 138.346,165.848 138,163.5C 134.011,162.008 131.844,159.174 131.5,155C 132.075,149.443 133.742,144.276 136.5,139.5C 137.002,138.479 137.668,138.312 138.5,139C 139.071,140.205 139.738,141.372 140.5,142.5C 142.524,138.451 144.524,134.451 146.5,130.5 Z"/></g>
<g><path style="opacity:1" fill="#f6f6f6" d="M 146.5,134.5 C 152.901,144.341 154.734,155.008 152,166.5C 146.849,169.901 143.016,168.901 140.5,163.5C 143.725,158.271 144.392,152.604 142.5,146.5C 143.278,142.286 144.611,138.286 146.5,134.5 Z"/></g>
<g><path style="opacity:1" fill="#eeeeee" d="M 137.5,142.5 C 140.806,147.278 141.973,152.612 141,158.5C 135.77,161.954 133.603,160.454 134.5,154C 134.484,149.877 135.484,146.043 137.5,142.5 Z"/></g>
<g><path style="opacity:1" fill="#313131" d="M 35.5,154.5 C 36.4345,155.568 36.7678,156.901 36.5,158.5C 29.7646,157.371 28.0979,159.538 31.5,165C 30.5,165.5 29.5,166 28.5,166.5C 28.2537,164.78 28.2537,162.78 28.5,160.5C 26.1667,160.5 23.8333,160.5 21.5,160.5C 21.6602,162.199 21.4935,163.866 21,165.5C 20.2604,162.824 19.9271,160.158 20,157.5C 24.8435,158.209 29.6768,157.709 34.5,156C 35.056,155.617 35.3893,155.117 35.5,154.5 Z"/></g>
<g><path style="opacity:1" fill="#575757" d="M 36.5,159.5 C 37.3058,160.997 37.9724,162.664 38.5,164.5C 37.635,165.583 36.635,165.749 35.5,165C 36.4061,163.301 36.7394,161.467 36.5,159.5 Z"/></g>
<g><path style="opacity:1" fill="#5f5f5f" d="M 248.5,171.5 C 252.098,173.09 255.764,174.59 259.5,176C 256.43,175.985 253.43,175.318 250.5,174C 249.244,173.583 248.577,172.75 248.5,171.5 Z"/></g>
<g><path style="opacity:1" fill="#242424" d="M 261.5,177.5 C 264.166,180.754 263.833,183.921 260.5,187C 258.5,187.667 256.5,187.667 254.5,187C 250.899,185.416 247.566,184.249 244.5,183.5C 245.098,182.205 245.598,180.872 246,179.5C 249.856,183.67 254.69,185.503 260.5,185C 262.656,182.712 262.99,180.212 261.5,177.5 Z"/></g>
<g><path style="opacity:1" fill="#222222" d="M 46.5,189.5 C 43.6737,189.998 41.3403,191.331 39.5,193.5C 36.7354,193.798 34.2354,194.798 32,196.5C 31.3076,195.975 30.8076,195.308 30.5,194.5C 34.8244,192.338 39.1578,190.171 43.5,188C 45.0815,185.065 46.0815,185.565 46.5,189.5 Z"/></g>
<g><path style="opacity:1" fill="#f5f5f5" d="M 46.5,189.5 C 48.3876,194.443 46.7209,196.61 41.5,196C 40.9341,195.005 40.2674,194.172 39.5,193.5C 41.3403,191.331 43.6737,189.998 46.5,189.5 Z"/></g>
<g><path style="opacity:1" fill="#242424" d="M 120.5,189.5 C 121.931,192.606 123.597,195.773 125.5,199C 127.677,200.202 130.011,200.702 132.5,200.5C 132.5,201.5 132.5,202.5 132.5,203.5C 123.829,202.821 119.829,198.154 120.5,189.5 Z"/></g>
<g><path style="opacity:1" fill="#242424" d="M 46.5,189.5 C 47.1174,189.611 47.6174,189.944 48,190.5C 49.6328,196.697 47.4661,199.031 41.5,197.5C 40.1667,199.5 38.5,201.167 36.5,202.5C 39.0811,204.171 38.7477,204.671 35.5,204C 35.0426,203.586 34.7093,203.086 34.5,202.5C 35.5283,200.639 37.0283,199.305 39,198.5C 39.4935,196.866 39.6602,195.199 39.5,193.5C 40.2674,194.172 40.9341,195.005 41.5,196C 46.7209,196.61 48.3876,194.443 46.5,189.5 Z"/></g>
<g><path style="opacity:1" fill="#4b4b4b" d="M 233.5,203.5 C 234.849,202.203 236.182,202.37 237.5,204C 236.181,204.195 234.847,204.028 233.5,203.5 Z"/></g>
<g><path style="opacity:1" fill="#434343" d="M 229.5,208.5 C 228.641,210.372 228.308,212.038 228.5,213.5C 227.692,213.192 227.025,212.692 226.5,212C 227.163,210.482 228.163,209.315 229.5,208.5 Z"/></g>
<g><path style="opacity:1" fill="#272727" d="M 233.5,203.5 C 232.972,204.847 232.805,206.181 233,207.5C 236.167,210 239.333,212.5 242.5,215C 246.338,214.58 246.504,215.747 243,218.5C 238.886,214.539 234.386,211.206 229.5,208.5C 230.604,206.611 231.937,204.945 233.5,203.5 Z"/></g>
<g><path style="opacity:1" fill="#262626" d="M 66.5,216.5 C 64.8333,216.5 63.1667,216.5 61.5,216.5C 62.0037,220.507 62.1703,224.507 62,228.5C 60.5557,230.155 58.7224,230.822 56.5,230.5C 57.1667,229.833 57.8333,229.167 58.5,228.5C 59.8799,228.038 60.5466,227.038 60.5,225.5C 57.0158,220.424 58.0158,216.758 63.5,214.5C 65.0377,214.453 66.0377,215.12 66.5,216.5 Z"/></g>
<g><path style="opacity:1" fill="#434343" d="M 66.5,216.5 C 68.8949,217.882 69.3949,219.548 68,221.5C 67.3923,219.846 66.8923,218.179 66.5,216.5 Z"/></g>
<g><path style="opacity:1" fill="#2b2b2b" d="M 53.5,226.5 C 51.6325,225.214 51.4658,223.881 53,222.5C 53.49,223.793 53.6567,225.127 53.5,226.5 Z"/></g>
<g><path style="opacity:1" fill="#777777" d="M 53.5,226.5 C 54.8195,227.942 56.4862,228.608 58.5,228.5C 57.8333,229.167 57.1667,229.833 56.5,230.5C 54.7376,229.738 53.7376,228.404 53.5,226.5 Z"/></g>
<g><path style="opacity:1" fill="#2a2a2a" d="M 84.5,250.5 C 80.7026,246.83 80.5359,242.83 84,238.5C 87.4531,235.231 91.2865,234.731 95.5,237C 98.7623,242.822 97.7623,247.822 92.5,252C 90.1667,252.667 87.8333,252.667 85.5,252C 84.944,251.617 84.6107,251.117 84.5,250.5 Z"/></g>
<g><path style="opacity:1" fill="#f8f8f8" d="M 84.5,250.5 C 82.6148,243.938 84.7815,239.271 91,236.5C 94.3552,236.852 95.8552,238.686 95.5,242C 94.7295,248.965 91.0628,251.799 84.5,250.5 Z"/></g>
<g><path style="opacity:1" fill="#767676" d="M 183.5,242.5 C 183.167,242.5 182.833,242.5 182.5,242.5C 184.352,241.039 186.518,240.039 189,239.5C 190.769,240.371 191.436,241.704 191,243.5C 188.806,241.163 186.306,240.83 183.5,242.5 Z"/></g>
<g><path style="opacity:1" fill="#5f5f5f" d="M 189.5,248.5 C 190.476,244.553 191.476,244.553 192.5,248.5C 191.767,249.087 190.767,249.087 189.5,248.5 Z"/></g>
<g><path style="opacity:1" fill="#121212" d="M 149.5,249.5 C 149.179,254.695 149.513,259.695 150.5,264.5C 150.44,265.043 150.107,265.376 149.5,265.5C 148.828,264.051 148.161,262.718 147.5,261.5C 147.5,258.833 147.5,256.167 147.5,253.5C 147.157,251.517 147.824,250.183 149.5,249.5 Z"/></g>
<g><path style="opacity:1" fill="#f4f4f4" d="M 149.5,249.5 C 151.292,249.366 152.958,249.699 154.5,250.5C 156.988,252.056 157.988,254.389 157.5,257.5C 158.274,261.218 156.94,263.551 153.5,264.5C 152.5,264.5 151.5,264.5 150.5,264.5C 149.513,259.695 149.179,254.695 149.5,249.5 Z"/></g>
<g><path style="opacity:1" fill="#292929" d="M 154.5,250.5 C 154.5,250.167 154.5,249.833 154.5,249.5C 160.405,252.187 161.905,256.52 159,262.5C 157.736,264.607 155.903,265.607 153.5,265.5C 153.5,265.167 153.5,264.833 153.5,264.5C 156.94,263.551 158.274,261.218 157.5,257.5C 157.988,254.389 156.988,252.056 154.5,250.5 Z"/></g>
<g><path style="opacity:1" fill="#212121" d="M 182.5,242.5 C 182.833,242.5 183.167,242.5 183.5,242.5C 183.347,246.798 185.347,248.798 189.5,248.5C 188.34,249.265 187.34,250.265 186.5,251.5C 187.154,253.858 188.487,255.525 190.5,256.5C 190.5,256.833 190.5,257.167 190.5,257.5C 189.417,257.539 188.417,257.873 187.5,258.5C 185.3,253.267 182.967,248.101 180.5,243C 181.094,242.536 181.761,242.369 182.5,242.5 Z"/></g>
<g><path style="opacity:1" fill="#858585" d="M 154.5,249.5 C 154.5,249.833 154.5,250.167 154.5,250.5C 152.958,249.699 151.292,249.366 149.5,249.5C 147.824,250.183 147.157,251.517 147.5,253.5C 146.661,252.359 145.994,251.026 145.5,249.5C 148.645,248.197 151.645,248.197 154.5,249.5 Z"/></g>
<g><path style="opacity:1" fill="#6f6f6f" d="M 190.5,257.5 C 190.5,257.167 190.5,256.833 190.5,256.5C 193.152,256.009 194.652,254.342 195,251.5C 195.5,252.5 196,253.5 196.5,254.5C 194.68,255.883 192.68,256.883 190.5,257.5 Z"/></g>
<g><path style="opacity:1" fill="#858585" d="M 147.5,261.5 C 148.161,262.718 148.828,264.051 149.5,265.5C 150.107,265.376 150.44,265.043 150.5,264.5C 151.5,264.5 152.5,264.5 153.5,264.5C 153.5,264.833 153.5,265.167 153.5,265.5C 151.218,266.39 148.885,266.556 146.5,266C 147.38,264.644 147.714,263.144 147.5,261.5 Z"/></g>
</svg>
