<?xml version="1.0" encoding="UTF-8"?>
<!DOCTYPE svg PUBLIC "-//W3C//DTD SVG 1.1//EN" "http://www.w3.org/Graphics/SVG/1.1/DTD/svg11.dtd">
<svg xmlns="http://www.w3.org/2000/svg" version="1.1" width="412px" height="92px" style="shape-rendering:geometricPrecision; text-rendering:geometricPrecision; image-rendering:optimizeQuality; fill-rule:evenodd; clip-rule:evenodd" xmlns:xlink="http://www.w3.org/1999/xlink">
<g><path style="opacity:1" fill="#fdfdfd" d="M -0.5,-0.5 C 136.833,-0.5 274.167,-0.5 411.5,-0.5C 411.5,30.1667 411.5,60.8333 411.5,91.5C 274.167,91.5 136.833,91.5 -0.5,91.5C -0.5,60.8333 -0.5,30.1667 -0.5,-0.5 Z"/></g>
<g><path style="opacity:1" fill="#121212" d="M 344.5,13.5 C 346.723,16.8859 349.723,19.3859 353.5,21C 349.501,21.6678 346.668,23.8345 345,27.5C 343.237,22.6947 339.737,20.528 334.5,21C 339.982,21.1155 343.315,18.6155 344.5,13.5 Z"/></g>
<g><path style="opacity:1" fill="#101010" d="M 70.5,39.5 C 73.9103,39.3838 75.2436,41.0504 74.5,44.5C 72.8333,44.5 71.1667,44.5 69.5,44.5C 69.366,42.7085 69.6993,41.0418 70.5,39.5 Z"/></g>
<g><path style="opacity:1" fill="#101010" d="M 327.5,39.5 C 330.91,39.3838 332.244,41.0504 331.5,44.5C 329.833,44.5 328.167,44.5 326.5,44.5C 326.366,42.7085 326.699,41.0418 327.5,39.5 Z"/></g>
<g><path style="opacity:1" fill="#0c0c0c" d="M 221.5,41.5 C 222.167,49.8333 222.833,58.1667 223.5,66.5C 224.098,69.7307 225.264,70.064 227,67.5C 227.684,68.7839 227.517,69.9505 226.5,71C 222.795,72.3128 220.462,71.1461 219.5,67.5C 219.591,65.3023 218.925,64.9689 217.5,66.5C 218.344,62.9009 218.677,59.2343 218.5,55.5C 219.782,52.0641 219.782,48.7307 218.5,45.5C 218.468,43.3812 219.468,42.0478 221.5,41.5 Z"/></g>
<g><path style="opacity:1" fill="#414141" d="M 221.5,41.5 C 221.56,40.9569 221.893,40.6236 222.5,40.5C 223.498,49.1411 223.831,57.8078 223.5,66.5C 222.833,58.1667 222.167,49.8333 221.5,41.5 Z"/></g>
<g><path style="opacity:1" fill="#050505" d="M 364.5,40.5 C 365.33,49.6577 365.83,58.991 366,68.5C 367.303,69.1122 368.47,69.4455 369.5,69.5C 367.085,72.1283 364.585,72.1283 362,69.5C 361.805,60.7854 361.305,52.1188 360.5,43.5C 362.184,42.8503 363.517,41.8503 364.5,40.5 Z"/></g>
<g><path style="opacity:1" fill="#0d0d0d" d="M 37.5,66.5 C 37.0844,68.7525 35.751,70.2525 33.5,71C 25.65,73.5792 20.4833,71.0792 18,63.5C 17.814,56.5863 17.314,49.7529 16.5,43C 18.9018,42.1859 21.2351,42.3526 23.5,43.5C 22.3718,50.1157 22.2052,56.7823 23,63.5C 26.2169,71.5776 31.0502,72.5776 37.5,66.5 Z"/></g>
<g><path style="opacity:1" fill="#9b9b9b" d="M 260.5,48.5 C 259.833,47.1667 259.167,45.8333 258.5,44.5C 258.369,43.6236 258.702,42.9569 259.5,42.5C 260.466,44.396 260.799,46.396 260.5,48.5 Z"/></g>
<g><path style="opacity:1" fill="#0f0f0f" d="M 258.5,44.5 C 259.167,45.8333 259.833,47.1667 260.5,48.5C 262.857,48.3367 265.19,48.5034 267.5,49C 264.854,49.4974 262.187,49.6641 259.5,49.5C 259.334,55.5092 259.501,61.5092 260,67.5C 260.377,68.9423 261.21,69.9423 262.5,70.5C 262.5,71.1667 262.167,71.5 261.5,71.5C 258.297,71.3185 256.464,69.6518 256,66.5C 255.501,60.8431 255.334,55.1764 255.5,49.5C 250.532,49.1341 250.866,48.6341 256.5,48C 257.823,47.1841 258.489,46.0174 258.5,44.5 Z"/></g>
<g><path style="opacity:1" fill="#151515" d="M 45.5,48.5 C 47.045,49.2297 47.8784,50.563 48,52.5C 51.0498,48.8697 54.8831,47.703 59.5,49C 62,50.1667 63.8333,52 65,54.5C 65.2139,59.8854 65.7139,65.2187 66.5,70.5C 64.1667,71.8333 61.8333,71.8333 59.5,70.5C 60.6209,64.8862 60.7876,59.2195 60,53.5C 55.6942,49.3251 51.6942,49.6584 48,54.5C 47.3127,60.2037 47.4793,65.8704 48.5,71.5C 46.5,71.5 44.5,71.5 42.5,71.5C 43.7565,64.4865 43.7565,57.4865 42.5,50.5C 43.6016,49.8243 44.6016,49.1577 45.5,48.5 Z"/></g>
<g><path style="opacity:1" fill="#060606" d="M 130.5,48.5 C 130.298,50.9496 130.631,53.283 131.5,55.5C 130.27,60.7886 130.27,66.1219 131.5,71.5C 129.5,71.5 127.5,71.5 125.5,71.5C 126.756,64.4865 126.756,57.4865 125.5,50.5C 127.022,49.438 128.688,48.7713 130.5,48.5 Z"/></g>
<g><path style="opacity:1" fill="#121212" d="M 137.5,48.5 C 145.212,47.715 148.712,51.0483 148,58.5C 144.353,63.313 140.52,63.6463 136.5,59.5C 136.5,58.8333 136.833,58.5 137.5,58.5C 142.933,60.2379 145.099,58.2379 144,52.5C 143.184,51.1772 142.017,50.5106 140.5,50.5C 139.5,49.8333 138.5,49.1667 137.5,48.5 Z"/></g>
<g><path style="opacity:1" fill="#1a1a1a" d="M 217.5,53.5 C 212.703,49.2548 208.203,49.5882 204,54.5C 203.333,57.8333 203.333,61.1667 204,64.5C 204.656,66.9861 206.156,68.6528 208.5,69.5C 209.833,70.1667 211.167,70.8333 212.5,71.5C 201.828,71.6476 197.328,66.3142 199,55.5C 202.672,48.45 208.172,46.6166 215.5,50C 216.823,50.8159 217.489,51.9826 217.5,53.5 Z"/></g>
<g><path style="opacity:1" fill="#0f0f0f" d="M 287.5,67.5 C 286.346,70.5856 284.012,71.919 280.5,71.5C 277.675,71.8809 275.509,70.8809 274,68.5C 272.898,62.36 272.065,56.1934 271.5,50C 272.872,49.5983 274.205,49.0983 275.5,48.5C 276.08,54.9132 276.913,61.2465 278,67.5C 281.164,70.1119 284.331,70.1119 287.5,67.5 Z"/></g>
<g><path style="opacity:1" fill="#070707" d="M 304.5,54.5 C 303.044,58.9735 303.377,63.3068 305.5,67.5C 304.883,67.3893 304.383,67.056 304,66.5C 303.352,71.2041 303.519,75.8708 304.5,80.5C 302.5,80.5 300.5,80.5 298.5,80.5C 299.783,70.4872 299.783,60.4872 298.5,50.5C 299.736,49.6433 301.069,48.9766 302.5,48.5C 303.169,50.6309 303.835,52.6309 304.5,54.5 Z"/></g>
<g><path style="opacity:1" fill="#161616" d="M 305.5,67.5 C 313.729,72.2159 318.396,69.7159 319.5,60C 319.009,51.3476 314.676,48.5142 306.5,51.5C 311.15,47.5962 315.984,47.5962 321,51.5C 324.279,57.1012 324.279,62.7679 321,68.5C 317.319,71.3597 313.152,72.1931 308.5,71C 306.574,70.5776 305.574,69.4109 305.5,67.5 Z"/></g>
<g><path style="opacity:1" fill="#040404" d="M 329.5,48.5 C 331.27,55.7938 332.27,63.4605 332.5,71.5C 330.5,71.5 328.5,71.5 326.5,71.5C 327.756,64.4865 327.756,57.4865 326.5,50.5C 327.602,49.8243 328.602,49.1577 329.5,48.5 Z"/></g>
<g><path style="opacity:1" fill="#191919" d="M 72.5,48.5 C 74.1774,55.6771 75.1774,63.1771 75.5,71C 73.1667,71.6667 70.8333,71.6667 68.5,71C 69.4799,63.9213 69.8132,56.7546 69.5,49.5C 70.791,49.7373 71.791,49.404 72.5,48.5 Z"/></g>
<g><path style="opacity:1" fill="#141414" d="M 90.5,66.5 C 89.962,68.1172 89.6287,69.7839 89.5,71.5C 88.1667,71.5 86.8333,71.5 85.5,71.5C 83.5725,63.5468 80.5725,56.0468 76.5,49C 79.146,48.5026 81.8127,48.3359 84.5,48.5C 84.8986,54.202 86.2319,59.702 88.5,65C 88.8361,66.0299 89.5028,66.5299 90.5,66.5 Z"/></g>
<g><path style="opacity:1" fill="#252525" d="M 93.5,58.5 C 94.1667,55.1667 94.8333,51.8333 95.5,48.5C 96.675,48.281 97.675,48.6143 98.5,49.5C 96.6333,52.4791 94.9667,55.4791 93.5,58.5 Z"/></g>
<g><path style="opacity:1" fill="#181818" d="M 162.5,71.5 C 162.5,71.1667 162.5,70.8333 162.5,70.5C 165.789,69.2555 166.956,66.9222 166,63.5C 161.725,60.9585 157.225,58.7918 152.5,57C 150.876,53.7944 151.542,51.1277 154.5,49C 158.89,48.2278 163.223,48.3945 167.5,49.5C 168.614,50.723 168.781,52.0563 168,53.5C 166.471,50.484 163.971,49.1506 160.5,49.5C 155.84,49.03 154.506,50.8633 156.5,55C 161.225,56.7918 165.725,58.9585 170,61.5C 171.519,67.8171 169.019,71.1505 162.5,71.5 Z"/></g>
<g><path style="opacity:1" fill="#5f5f5f" d="M 218.5,45.5 C 219.782,48.7307 219.782,52.0641 218.5,55.5C 217.662,55.1583 217.328,54.4916 217.5,53.5C 218.473,51.0521 218.806,48.3854 218.5,45.5 Z"/></g>
<g><path style="opacity:1" fill="#1d1d1d" d="M 287.5,67.5 C 288.813,61.6663 288.813,55.833 287.5,50C 289.436,49.187 291.436,48.687 293.5,48.5C 293.334,55.175 293.5,61.8417 294,68.5C 295.264,68.6399 296.431,68.6399 297.5,68.5C 295.912,71.2571 293.579,72.0904 290.5,71C 290.026,69.2714 289.026,68.1047 287.5,67.5 Z"/></g>
<g><path style="opacity:1" fill="#161616" d="M 112.5,70.5 C 112.158,71.3382 111.492,71.6716 110.5,71.5C 101.264,68.6557 98.431,62.6557 102,53.5C 106.491,48.7409 111.991,47.2409 118.5,49C 122.872,51.195 123.539,54.195 120.5,58C 115.264,59.339 109.93,59.839 104.5,59.5C 104.517,65.2335 107.183,68.9002 112.5,70.5 Z"/></g>
<g><path style="opacity:1" fill="#f4f4f4" d="M 109.5,49.5 C 113.007,48.9935 116.174,49.6602 119,51.5C 120.042,54.8039 118.875,56.9705 115.5,58C 111.848,58.4986 108.182,58.6653 104.5,58.5C 104.891,54.7793 106.558,51.7793 109.5,49.5 Z"/></g>
<g><path style="opacity:1" fill="#6d6d6d" d="M 130.5,48.5 C 131.29,49.6085 131.79,50.9419 132,52.5C 133.432,50.5612 135.265,49.2279 137.5,48.5C 138.5,49.1667 139.5,49.8333 140.5,50.5C 136.285,50.0607 133.285,51.7274 131.5,55.5C 130.631,53.283 130.298,50.9496 130.5,48.5 Z"/></g>
<g><path style="opacity:1" fill="#121212" d="M 187.5,71.5 C 186.833,71.5 186.5,71.1667 186.5,70.5C 188.017,70.4894 189.184,69.8228 190,68.5C 193.333,62.8333 193.333,57.1667 190,51.5C 181.744,47.5659 177.244,50.2325 176.5,59.5C 176.622,62.6979 177.455,65.6979 179,68.5C 179.816,69.8228 180.983,70.4894 182.5,70.5C 182.5,71.1667 182.167,71.5 181.5,71.5C 173.882,68.8655 171.049,63.5321 173,55.5C 177.487,48.4505 183.654,46.6172 191.5,50C 196.645,54.5978 197.812,60.0978 195,66.5C 193.143,69.1998 190.643,70.8665 187.5,71.5 Z"/></g>
<g><path style="opacity:1" fill="#f7f7f7" d="M 186.5,70.5 C 185.167,70.5 183.833,70.5 182.5,70.5C 180.983,70.4894 179.816,69.8228 179,68.5C 177.455,65.6979 176.622,62.6979 176.5,59.5C 177.244,50.2325 181.744,47.5659 190,51.5C 193.333,57.1667 193.333,62.8333 190,68.5C 189.184,69.8228 188.017,70.4894 186.5,70.5 Z"/></g>
<g><path style="opacity:1" fill="#fbfbfb" d="M 217.5,53.5 C 217.328,54.4916 217.662,55.1583 218.5,55.5C 218.677,59.2343 218.344,62.9009 217.5,66.5C 215.112,69.0762 212.112,70.0762 208.5,69.5C 206.156,68.6528 204.656,66.9861 204,64.5C 203.333,61.1667 203.333,57.8333 204,54.5C 208.203,49.5882 212.703,49.2548 217.5,53.5 Z"/></g>
<g><path style="opacity:1" fill="#161616" d="M 240.5,70.5 C 240.158,71.3382 239.492,71.6716 238.5,71.5C 229.264,68.6557 226.431,62.6557 230,53.5C 234.491,48.7409 239.991,47.2409 246.5,49C 250.872,51.195 251.539,54.195 248.5,58C 243.264,59.339 237.93,59.839 232.5,59.5C 232.517,65.2335 235.183,68.9002 240.5,70.5 Z"/></g>
<g><path style="opacity:1" fill="#f4f4f4" d="M 237.5,49.5 C 241.007,48.9935 244.174,49.6602 247,51.5C 248.042,54.8039 246.875,56.9705 243.5,58C 239.848,58.4986 236.182,58.6653 232.5,58.5C 232.891,54.7793 234.558,51.7793 237.5,49.5 Z"/></g>
<g><path style="opacity:1" fill="#f4f4f4" d="M 305.5,67.5 C 303.377,63.3068 303.044,58.9735 304.5,54.5C 305.906,54.0269 306.573,53.0269 306.5,51.5C 314.676,48.5142 319.009,51.3476 319.5,60C 318.396,69.7159 313.729,72.2159 305.5,67.5 Z"/></g>
<g><path style="opacity:1" fill="#1c1c1c" d="M 346.5,70.5 C 346.5,71.1667 346.167,71.5 345.5,71.5C 335.23,68.5285 332.396,62.1952 337,52.5C 342.623,48.2186 348.79,47.3853 355.5,50C 358.806,54.4429 357.806,57.4429 352.5,59C 348.179,59.499 343.846,59.6657 339.5,59.5C 339.076,64.9959 341.409,68.6625 346.5,70.5 Z"/></g>
<g><path style="opacity:1" fill="#f8f8f8" d="M 344.5,49.5 C 346.857,49.3367 349.19,49.5034 351.5,50C 354.488,53.5386 353.821,56.2053 349.5,58C 346.183,58.4983 342.85,58.665 339.5,58.5C 339.372,54.4153 341.039,51.4153 344.5,49.5 Z"/></g>
<g><path style="opacity:1" fill="#3b3b3b" d="M 37.5,66.5 C 38.7645,58.82 38.7645,51.1534 37.5,43.5C 38.365,42.4173 39.365,42.2506 40.5,43C 39.6851,50.0867 39.1851,57.2534 39,64.5C 38.7216,65.4158 38.2216,66.0825 37.5,66.5 Z"/></g>
<g><path style="opacity:1" fill="#525252" d="M 306.5,51.5 C 306.573,53.0269 305.906,54.0269 304.5,54.5C 304.427,52.9731 305.094,51.9731 306.5,51.5 Z"/></g>
<g><path style="opacity:1" fill="#757575" d="M 137.5,58.5 C 136.833,58.5 136.5,58.8333 136.5,59.5C 135.156,57.8151 135.323,56.1484 137,54.5C 137.49,55.7932 137.657,57.1266 137.5,58.5 Z"/></g>
<g><path style="opacity:1" fill="#666666" d="M 93.5,58.5 C 93.2671,61.5418 92.2671,64.2084 90.5,66.5C 90.7329,63.4582 91.7329,60.7916 93.5,58.5 Z"/></g>
<g><path style="opacity:1" fill="#1c1c1c" d="M 119.5,70.5 C 119.5,70.1667 119.5,69.8333 119.5,69.5C 120.341,67.6208 120.675,65.6208 120.5,63.5C 118.22,63.7463 116.22,63.7463 114.5,63.5C 116.859,59.875 119.693,59.5416 123,62.5C 124.222,66.2464 123.056,68.9131 119.5,70.5 Z"/></g>
<g><path style="opacity:1" fill="#1c1c1c" d="M 247.5,70.5 C 247.5,70.1667 247.5,69.8333 247.5,69.5C 248.341,67.6208 248.675,65.6208 248.5,63.5C 246.22,63.7463 244.22,63.7463 242.5,63.5C 244.859,59.875 247.693,59.5416 251,62.5C 252.222,66.2464 251.056,68.9131 247.5,70.5 Z"/></g>
<g><path style="opacity:1" fill="#1c1c1c" d="M 353.5,70.5 C 356.491,67.4979 356.158,65.1646 352.5,63.5C 350.971,63.5288 349.804,64.1955 349,65.5C 348.412,62.412 349.745,60.7453 353,60.5C 357.206,61.5282 358.539,64.1948 357,68.5C 356.184,69.8228 355.017,70.4894 353.5,70.5 Z"/></g>
<g><path style="opacity:1" fill="#181818" d="M 157.5,70.5 C 157.5,71.1667 157.167,71.5 156.5,71.5C 151.712,70.877 149.879,68.2103 151,63.5C 153.209,61.2936 155.709,60.9602 158.5,62.5C 159.583,63.365 159.749,64.365 159,65.5C 156.214,62.7363 154.048,63.2363 152.5,67C 153.207,69.54 154.873,70.7067 157.5,70.5 Z"/></g>
<g><path style="opacity:1" fill="#1e1e1e" d="M 267.5,70.5 C 267.167,70.5 266.833,70.5 266.5,70.5C 268.428,65.8011 267.094,63.8011 262.5,64.5C 264.577,61.8808 266.743,61.8808 269,64.5C 269.941,66.9894 269.441,68.9894 267.5,70.5 Z"/></g>
<g><path style="opacity:1" fill="#565656" d="M 219.5,67.5 C 217.184,68.8056 214.85,70.1389 212.5,71.5C 211.167,70.8333 209.833,70.1667 208.5,69.5C 212.112,70.0762 215.112,69.0762 217.5,66.5C 218.925,64.9689 219.591,65.3023 219.5,67.5 Z"/></g>
<g><path style="opacity:1" fill="#909090" d="M 182.5,70.5 C 183.833,70.5 185.167,70.5 186.5,70.5C 186.5,71.1667 186.833,71.5 187.5,71.5C 185.5,72.8333 183.5,72.8333 181.5,71.5C 182.167,71.5 182.5,71.1667 182.5,70.5 Z"/></g>
<g><path style="opacity:1" fill="#818181" d="M 119.5,69.5 C 119.5,69.8333 119.5,70.1667 119.5,70.5C 116.627,72.4815 113.627,72.8149 110.5,71.5C 111.492,71.6716 112.158,71.3382 112.5,70.5C 114.95,70.702 117.283,70.3686 119.5,69.5 Z"/></g>
<g><path style="opacity:1" fill="#8e8e8e" d="M 157.5,70.5 C 159.167,70.5 160.833,70.5 162.5,70.5C 162.5,70.8333 162.5,71.1667 162.5,71.5C 160.389,72.7416 158.389,72.7416 156.5,71.5C 157.167,71.5 157.5,71.1667 157.5,70.5 Z"/></g>
<g><path style="opacity:1" fill="#818181" d="M 247.5,69.5 C 247.5,69.8333 247.5,70.1667 247.5,70.5C 244.627,72.4815 241.627,72.8149 238.5,71.5C 239.492,71.6716 240.158,71.3382 240.5,70.5C 242.95,70.702 245.283,70.3686 247.5,69.5 Z"/></g>
<g><path style="opacity:1" fill="#939393" d="M 262.5,70.5 C 263.833,70.5 265.167,70.5 266.5,70.5C 266.833,70.5 267.167,70.5 267.5,70.5C 265.68,72.4611 263.68,72.7944 261.5,71.5C 262.167,71.5 262.5,71.1667 262.5,70.5 Z"/></g>
<g><path style="opacity:1" fill="#7a7a7a" d="M 346.5,70.5 C 348.833,70.5 351.167,70.5 353.5,70.5C 350.96,72.4127 348.293,72.746 345.5,71.5C 346.167,71.5 346.5,71.1667 346.5,70.5 Z"/></g>
</svg>
